<svg width="156" height="25" viewBox="0 0 156 25" fill="none" xmlns="http://www.w3.org/2000/svg">
<path d="M11.1599 0.0299988L0.839996 20.2794H5.63221L15.9522 0.0299988H11.1599Z" fill="#F2617A"/>
<path d="M70.528 8.13962L69.7053 9.7585H69.656C69.2503 9.05711 68.7461 8.55666 68.1432 8.25714C67.5404 7.96142 66.839 7.80976 66.0429 7.80976C65.1974 7.80976 64.4505 7.9728 63.7984 8.30264C63.1463 8.63248 62.6042 9.07607 62.1644 9.6296C61.7284 10.1869 61.3947 10.8276 61.1673 11.5556C60.9398 12.2835 60.826 13.038 60.826 13.8228C60.826 14.6531 60.9246 15.4379 61.118 16.1848C61.3151 16.9279 61.6222 17.58 62.0468 18.1335C62.4677 18.6908 63.0098 19.1268 63.6657 19.4491C64.3216 19.7713 65.1064 19.9306 66.0163 19.9306C66.7518 19.9306 67.4532 19.7789 68.1167 19.4718C68.784 19.1647 69.2958 18.6946 69.656 18.0501H69.7015V19.6462C69.7015 21.5305 68.8105 22.63 67.0551 22.63C65.3263 22.63 64.3482 21.8604 63.8477 21.25L62.6307 23.6347C62.6307 23.6347 63.9918 24.8631 66.5774 24.8631C70.8654 24.8631 72.871 22.793 72.871 19.5097V8.1434H70.528V8.13962ZM69.5271 15.3128C69.4095 15.7108 69.2351 16.0672 69.0001 16.3819C68.765 16.6966 68.4693 16.9468 68.1091 17.1326C67.749 17.3222 67.3357 17.4131 66.8656 17.4131C66.35 17.4131 65.9178 17.3032 65.5728 17.0833C65.2277 16.8634 64.951 16.5829 64.7387 16.2378C64.5263 15.8928 64.3785 15.5061 64.2913 15.0739C64.2041 14.6417 64.1624 14.2095 64.1624 13.7697C64.1624 13.3147 64.2117 12.8825 64.314 12.4655C64.4164 12.0522 64.5794 11.6845 64.8069 11.3622C65.0344 11.04 65.3149 10.7859 65.6524 10.6002C65.9898 10.4106 66.3917 10.3196 66.8618 10.3196C67.4077 10.3196 67.8627 10.422 68.2229 10.6267C68.583 10.8314 68.8712 11.1044 69.0911 11.4494C69.311 11.7944 69.4664 12.1887 69.5612 12.6361C69.656 13.0835 69.7015 13.5574 69.7015 14.0578C69.7015 14.4938 69.6446 14.9147 69.5271 15.3128Z" fill="#003D4F"/>
<path d="M26.0711 9.82674H26.1431C26.564 9.12156 27.1061 8.60973 27.762 8.28747C28.4179 7.96521 29.0625 7.80598 29.688 7.80598C30.579 7.80598 31.3107 7.9273 31.8832 8.16994C32.4557 8.41258 32.9031 8.75001 33.2329 9.17843C33.5627 9.60685 33.7902 10.1338 33.9267 10.7518C34.0594 11.3698 34.1276 12.056 34.1276 12.8067V20.2756H30.7913V13.4171C30.7913 12.4162 30.6359 11.6693 30.3212 11.1727C30.0065 10.6798 29.453 10.4334 28.653 10.4334C27.7431 10.4334 27.0872 10.7025 26.6815 11.2447C26.2758 11.7868 26.0711 12.674 26.0711 13.91V20.2756H22.7348V3.50664H26.0711V9.82674Z" fill="#003D4F"/>
<path d="M35.5191 11.5783C35.8148 10.7897 36.2394 10.1149 36.7853 9.55756C37.3313 9.00024 37.991 8.57182 38.7568 8.26472C39.5227 7.96142 40.3833 7.80598 41.3387 7.80598C42.2941 7.80598 43.1585 7.95763 43.9358 8.26472C44.7092 8.57182 45.3727 9.00024 45.9186 9.55756C46.4646 10.1149 46.8892 10.7859 47.1849 11.5783C47.4806 12.3707 47.6323 13.2503 47.6323 14.2209C47.6323 15.1914 47.4844 16.0672 47.1849 16.852C46.8854 17.633 46.4646 18.3041 45.9186 18.8614C45.3689 19.4188 44.7092 19.8434 43.9358 20.1391C43.1623 20.4348 42.2979 20.5865 41.3387 20.5865C40.3833 20.5865 39.5227 20.4386 38.7568 20.1391C37.991 19.8434 37.3313 19.415 36.7853 18.8614C36.2356 18.3079 35.8148 17.6368 35.5191 16.852C35.2195 16.071 35.0717 15.1914 35.0717 14.2209C35.0717 13.2503 35.2195 12.3707 35.5191 11.5783ZM38.5483 15.6426C38.6431 16.1051 38.8023 16.5184 39.0298 16.8862C39.2573 17.2539 39.5568 17.5458 39.9321 17.7657C40.3075 17.9856 40.7776 18.0956 41.3425 18.0956C41.9074 18.0956 42.3813 17.9856 42.7642 17.7657C43.1472 17.5458 43.4543 17.2539 43.6817 16.8862C43.9092 16.5184 44.0684 16.1014 44.1632 15.6426C44.258 15.1801 44.3035 14.7062 44.3035 14.2209C44.3035 13.7356 44.258 13.2579 44.1632 12.7878C44.0684 12.3176 43.9092 11.9044 43.6817 11.5442C43.4543 11.184 43.151 10.8921 42.7642 10.6646C42.3813 10.4371 41.9074 10.3234 41.3425 10.3234C40.7814 10.3234 40.3113 10.4371 39.9321 10.6646C39.5568 10.8921 39.2535 11.184 39.0298 11.5442C38.8023 11.9044 38.6431 12.3176 38.5483 12.7878C38.4535 13.2579 38.408 13.7356 38.408 14.2209C38.408 14.7062 38.4535 15.1801 38.5483 15.6426Z" fill="#003D4F"/>
<path d="M56.7352 20.2794V18.5885H56.6632C56.2423 19.2936 55.6926 19.8017 55.0177 20.1164C54.3429 20.4272 53.6567 20.5865 52.9515 20.5865C52.0605 20.5865 51.3288 20.4689 50.7563 20.2339C50.1838 19.9988 49.7365 19.6652 49.4066 19.2368C49.0768 18.8083 48.8455 18.2814 48.7128 17.6634C48.5801 17.0454 48.5119 16.3592 48.5119 15.6085V8.13962H51.8482V14.9981C51.8482 15.999 52.0037 16.7459 52.3183 17.2425C52.6292 17.7354 53.1866 17.9818 53.9865 17.9818C54.8926 17.9818 55.5523 17.7127 55.958 17.1705C56.3636 16.6321 56.5684 15.7412 56.5684 14.5052V8.13962H59.9047V20.2794H56.7352Z" fill="#003D4F"/>
<path d="M77.4547 9.82674H77.5267C77.9476 9.12156 78.4897 8.60973 79.1456 8.28747C79.8015 7.96521 80.4461 7.80598 81.0716 7.80598C81.9626 7.80598 82.6943 7.9273 83.2668 8.16994C83.8393 8.41258 84.2866 8.75001 84.6165 9.17843C84.9463 9.60685 85.1738 10.1338 85.3103 10.7518C85.443 11.3698 85.5112 12.056 85.5112 12.8067V20.2756H82.1749V13.4171C82.1749 12.4162 82.0194 11.6693 81.7048 11.1727C81.3901 10.6798 80.8365 10.4334 80.0366 10.4334C79.1267 10.4334 78.4708 10.7025 78.0651 11.2447C77.6594 11.7868 77.4547 12.674 77.4547 13.91V20.2756H74.1183V3.50664H77.4547V9.82674Z" fill="#003D4F"/>
<path d="M110.966 11.5783C111.262 10.7897 111.686 10.1149 112.232 9.55756C112.778 9.00024 113.438 8.57182 114.204 8.26472C114.97 7.96142 115.83 7.80598 116.786 7.80598C117.741 7.80598 118.606 7.95763 119.383 8.26472C120.156 8.57182 120.82 9.00024 121.366 9.55756C121.915 10.1149 122.336 10.7859 122.632 11.5783C122.928 12.3707 123.079 13.2503 123.079 14.2209C123.079 15.1914 122.931 16.0672 122.632 16.852C122.336 17.633 121.912 18.3041 121.366 18.8614C120.82 19.4188 120.156 19.8434 119.383 20.1391C118.609 20.4348 117.741 20.5865 116.786 20.5865C115.83 20.5865 114.97 20.4386 114.204 20.1391C113.438 19.8434 112.778 19.415 112.232 18.8614C111.683 18.3079 111.262 17.6368 110.966 16.852C110.67 16.071 110.519 15.1914 110.519 14.2209C110.519 13.2503 110.667 12.3707 110.966 11.5783ZM113.995 15.6426C114.09 16.1051 114.249 16.5184 114.477 16.8862C114.704 17.2539 115.004 17.5458 115.379 17.7657C115.754 17.9856 116.225 18.0956 116.79 18.0956C117.354 18.0956 117.825 17.9856 118.211 17.7657C118.594 17.5458 118.901 17.2539 119.125 16.8862C119.352 16.5184 119.512 16.1014 119.606 15.6426C119.701 15.1801 119.747 14.7062 119.747 14.2209C119.747 13.7356 119.697 13.2579 119.606 12.7878C119.512 12.3176 119.352 11.9044 119.125 11.5442C118.897 11.184 118.594 10.8921 118.211 10.6646C117.828 10.4371 117.354 10.3234 116.79 10.3234C116.225 10.3234 115.758 10.4371 115.379 10.6646C115.004 10.8921 114.704 11.184 114.477 11.5442C114.249 11.9044 114.09 12.3176 113.995 12.7878C113.901 13.2579 113.855 13.7356 113.855 14.2209C113.855 14.7062 113.901 15.1801 113.995 15.6426Z" fill="#003D4F"/>
<path d="M136.846 3.51042V12.5034L141.05 8.13582H144.997L140.417 12.5982L145.512 20.2794H141.475L138.138 14.854L136.846 16.0976V20.2794H133.509V3.51042H136.846Z" fill="#003D4F"/>
<path d="M147.977 17.2615C148.125 17.5193 148.318 17.7316 148.553 17.8946C148.788 18.0577 149.057 18.179 149.364 18.2586C149.672 18.3382 149.986 18.3761 150.316 18.3761C150.551 18.3761 150.798 18.3496 151.055 18.2927C151.313 18.2397 151.548 18.1524 151.761 18.0349C151.973 17.9174 152.147 17.7619 152.288 17.5648C152.428 17.3714 152.5 17.125 152.5 16.8255C152.5 16.325 152.166 15.9497 151.503 15.6995C150.835 15.4492 149.91 15.199 148.72 14.9488C148.235 14.8389 147.761 14.7099 147.298 14.5621C146.836 14.4142 146.426 14.2171 146.066 13.9744C145.706 13.7318 145.418 13.4285 145.198 13.0607C144.978 12.693 144.868 12.2418 144.868 11.711C144.868 10.9262 145.02 10.2855 145.327 9.78504C145.634 9.28459 146.036 8.89029 146.536 8.59836C147.037 8.31022 147.601 8.10548 148.227 7.98795C148.853 7.87042 149.493 7.81356 150.153 7.81356C150.813 7.81356 151.45 7.87801 152.068 8.00312C152.686 8.12824 153.239 8.34055 153.724 8.63628C154.21 8.932 154.612 9.33008 154.934 9.82295C155.252 10.3158 155.446 10.9376 155.51 11.6883H152.341C152.295 11.0475 152.052 10.6115 151.613 10.3841C151.173 10.1566 150.657 10.0428 150.062 10.0428C149.876 10.0428 149.672 10.0542 149.452 10.077C149.232 10.0997 149.035 10.1528 148.853 10.2286C148.674 10.3082 148.519 10.422 148.394 10.5698C148.269 10.7177 148.208 10.9186 148.208 11.1689C148.208 11.4684 148.318 11.711 148.538 11.8968C148.758 12.0864 149.042 12.238 149.395 12.3555C149.747 12.4731 150.149 12.5792 150.604 12.674C151.059 12.7688 151.522 12.8712 151.988 12.9811C152.473 13.0911 152.947 13.2237 153.41 13.3792C153.872 13.5346 154.282 13.7432 154.642 14.001C155.002 14.2588 155.29 14.581 155.51 14.964C155.73 15.3469 155.84 15.8208 155.84 16.3857C155.84 17.1857 155.681 17.8529 155.358 18.3951C155.036 18.9373 154.619 19.3695 154.104 19.6993C153.588 20.0292 152.996 20.2604 152.329 20.3931C151.662 20.5258 150.987 20.594 150.297 20.594C149.592 20.594 148.902 20.5258 148.231 20.3817C147.56 20.2415 146.961 20.0064 146.434 19.6766C145.907 19.3467 145.478 18.9145 145.141 18.3723C144.803 17.834 144.621 17.1553 144.591 16.3402H147.761C147.753 16.6966 147.825 17.0037 147.977 17.2615Z" fill="#003D4F"/>
<path d="M92.5669 17.7923C92.002 17.7923 91.6266 17.6975 91.4408 17.5117C91.2551 17.3222 91.1603 16.9468 91.1603 16.3857V10.3689H93.0218L94.1592 8.13582H91.1641V4.49616H87.8277V8.13582H86.1557L85.0221 10.3613L87.8277 10.3651V17.5269C87.8277 18.1373 87.9301 18.6302 88.131 19.0055C88.3358 19.3808 88.6125 19.669 88.9651 19.8737C89.3177 20.0784 89.7234 20.2149 90.1859 20.2832C90.6484 20.3552 91.1375 20.3893 91.6531 20.3893C91.983 20.3893 92.3166 20.3817 92.6616 20.3666C93.0067 20.3514 93.3213 20.3211 93.6019 20.2718V17.6861C93.4464 17.7165 93.2796 17.743 93.109 17.7582C92.9346 17.7847 92.7526 17.7923 92.5669 17.7923Z" fill="#003D4F"/>
<path d="M20.6571 17.7923C20.0922 17.7923 19.7169 17.6975 19.5311 17.5117C19.3453 17.3222 19.2506 16.9468 19.2506 16.3857V10.3689H20.968L22.1054 8.13582H19.2543V4.49616H15.918V8.13582H14.246L13.1124 10.3613L15.918 10.3651V17.5269C15.918 18.1373 16.0204 18.6302 16.2213 19.0055C16.426 19.3808 16.7028 19.669 17.0554 19.8737C17.408 20.0784 17.8136 20.2149 18.2762 20.2832C18.7387 20.3552 19.2278 20.3893 19.7434 20.3893C20.0733 20.3893 20.4069 20.3817 20.7519 20.3666C21.0969 20.3514 21.4116 20.3211 21.6922 20.2718V17.6861C21.5367 17.7165 21.3699 17.743 21.1993 17.7582C21.0249 17.7847 20.8429 17.7923 20.6571 17.7923Z" fill="#003D4F"/>
<path d="M130.912 7.80976C128.107 7.80976 127.037 10.3916 127.037 10.3916H126.992V8.13582H123.822V20.2756H127.159V15.1839C127.159 12.2228 127.735 10.9073 130.252 10.9073C130.772 10.9073 131.2 11.0248 131.557 11.2182L132.986 8.41259C132.44 8.06379 131.754 7.80976 130.912 7.80976Z" fill="#003D4F"/>
<path d="M107.717 8.13962L105.488 16.3592H105.438L103.372 8.13962H100.131L98.1135 16.3819H98.0643L95.835 8.13962L93.6625 12.401L96.1648 20.2794H99.6149L101.681 12.1319H101.73L103.888 20.2794H107.319L111.144 8.13962H107.717Z" fill="#003D4F"/>
</svg>
