<svg xmlns="http://www.w3.org/2000/svg" width="199" height="61" viewBox="0 0 199 61"><path fill="#000000" d="M42.663 17.597c-1.148-4.111-2.976-7.617-5.817-10.112-2.435-2.09-4.464-3.235-6.899-3.978v-.54h12.987l.337 14.63h-.608zm-9.402 27.844H10.4v-.537c3.518-.607 5.343-1.957 5.343-7.82V2.967h12.174v34.117c0 5.525 1.488 7.213 5.343 7.82l.001.537zM.931 17.597H.323l.406-14.63h12.985v.54c-2.435.743-4.464 1.887-6.899 3.977-2.84 2.495-4.734 6.002-5.884 10.113zm43.693 27.844v-.471c2.571-.474 3.518-1.283 3.518-5.125V23.463c0-2.359-.677-3.303-1.828-4.18-.27-.203-1.015-.675-1.352-.808v-.338l13.798-3.978.136.203c-.068 2.764-.204 6.606-.204 9.304v16.182c0 3.774 1.219 4.65 3.653 5.123v.471H44.624v-.001zm8.725-34.653c-3.178 0-5.749-2.224-5.749-5.394C47.6 2.226 50.17 0 53.349 0c3.18 0 5.749 2.226 5.749 5.394-.001 3.17-2.57 5.394-5.749 5.394zm31.247 34.653v-.471c2.231-.406 3.112-1.35 3.112-4.584V24.813c0-3.506-1.421-4.989-4.532-4.989-1.083 0-2.299.269-3.18.607v-.204c1.896-3.034 6.02-5.933 10.416-5.933 5.953 0 7.914 3.775 7.914 9.035v16.519c0 3.842.946 4.65 3.449 5.123v.471H84.596v-.001zm-2.908 0H64.44v-.471c2.571-.474 3.517-1.283 3.517-5.125V23.329c0-2.361-.677-3.237-1.825-4.046-.271-.271-.881-.675-1.219-.808v-.338l13.461-3.978.134.203v26.025c0 3.235.881 4.18 3.18 4.584v.47zm43.895 0v-.537c2.366-1.551 3.922-6.877 3.922-13.485 0-8.629-2.502-12.811-7.644-12.811-1.082 0-2.299.203-3.109.607v-.204c1.352-1.955 5.68-4.718 9.873-4.718 8.928 0 12.107 6.269 12.107 14.022 0 8.162-4.261 15.039-15.149 17.126zm-1.963-.201v.607c-.677.063-1.623.133-2.705.063-.879 0-2.435-.269-3.383-.604v8.965c0 3.506 1.421 4.789 4.396 5.262v.473h-18.463v-.473c2.502-.473 3.449-1.282 3.449-5.125V23.53c0-2.427-.609-3.235-1.827-4.111l-1.284-.811v-.337l13.525-4.045.203.203v22.115c0 2.088.271 4.449 1.557 6.202 1.084 1.551 2.842 2.291 4.532 2.494zm19.95.201v-.471c2.57-.474 3.518-1.283 3.518-5.125V23.463c0-2.359-.677-3.303-1.826-4.18-.271-.203-1.017-.675-1.353-.808v-.338l13.798-3.978.137.203c-.068 2.764-.205 6.606-.205 9.304v16.182c0 3.774 1.219 4.65 3.654 5.123v.471H143.57v-.001zm8.726-34.653c-3.178 0-5.749-2.224-5.749-5.394 0-3.168 2.571-5.394 5.749-5.394 3.181 0 5.749 2.226 5.749 5.394 0 3.17-2.568 5.394-5.749 5.394zm25.837 34.653v-.537c1.825-.204 2.907-.879 2.907-2.495 0-.812-.541-2.158-1.558-3.709-1.148-2.022-11.228-17.529-12.172-18.877-1.558-2.227-3.313-3.843-5.953-4.181v-.54h20.697v.54c-1.826.135-3.045.878-3.045 2.361 0 .808.811 2.493 1.557 3.707 1.016 1.752 10.482 16.114 11.838 18.205 1.961 2.899 3.65 4.382 6.084 4.989v.537h-20.355zm8.724-20.628l-.406-.54c1.083-1.822 1.895-4.046 1.895-5.597 0-2.022-1.353-2.831-3.519-3.034v-.54h13.12v.54c-4.191 1.012-7.776 4.382-11.09 9.171zm-13.73 10.516l.405.606c-.88 1.685-1.896 3.707-1.896 5.324 0 2.023 1.762 3.438 3.723 3.645v.537h-13.73v-.537c4.734-1.216 8.184-4.788 11.498-9.575z"/></svg>